<?xml version="1.0" encoding="UTF-8"?>
<svg version="1.1" xmlns="http://www.w3.org/2000/svg" width="500" height="500">
<path d="M0 0 C165 0 330 0 500 0 C500 165 500 330 500 500 C335 500 170 500 0 500 C0 335 0 170 0 0 Z " fill="#FEFEFE" transform="translate(0,0)"/>
<path d="M0 0 C2.40921705 2.40921705 3.53812156 4.94334509 5 8 C6.98 5.36 8.96 2.72 11 0 C11 3.61461272 10.21444726 4.21950394 8.02734375 6.984375 C4.2994536 12.41672536 4.25987431 16.81920419 4.5625 23.25 C4.58699219 24.28253906 4.61148438 25.31507813 4.63671875 26.37890625 C4.72292832 29.58825324 4.85586049 32.79277382 5 36 C5.0616333 37.56331055 5.0616333 37.56331055 5.12451172 39.15820312 C5.35972142 45.10929197 5.65317366 51.05440565 6 57 C6.59167969 56.23816406 7.18335938 55.47632813 7.79296875 54.69140625 C10.84523291 50.96926465 14.31089312 48.07706328 18 45 C18.76401123 44.34354492 18.76401123 44.34354492 19.54345703 43.67382812 C40.2919478 25.88768367 64.08628333 15.35200525 91 11 C90.67 9.68 90.34 8.36 90 7 C91.5 8.3125 91.5 8.3125 93 10 C93 10.99 93 11.98 93 13 C90.03 13.66 87.06 14.32 84 15 C84.79664063 15.58007812 84.79664063 15.58007812 85.609375 16.171875 C93.28045326 21.82719547 93.28045326 21.82719547 96 25 C96 25.66 96 26.32 96 27 C95.01 27.33 94.02 27.66 93 28 C93.969375 28.78375 94.93875 29.5675 95.9375 30.375 C100.01278055 34.50781392 100 38.39622779 100 44 C99.979375 45.24394531 99.95875 46.48789062 99.9375 47.76953125 C99.916875 49.08308594 99.89625 50.39664063 99.875 51.75 C99.80925781 53.59851563 99.80925781 53.59851563 99.7421875 55.484375 C100.0258419 59.35238958 101.12691028 61.64609067 103 65 C103 65.66 103 66.32 103 67 C100.64558284 66.85758352 98.29152516 66.71115192 95.9375 66.5625 C93.97103516 66.44068359 93.97103516 66.44068359 91.96484375 66.31640625 C88 66 88 66 84.87768555 65.49072266 C80.22439885 64.90184736 75.67718073 64.83779728 70.9921875 64.83203125 C70.03087921 64.82870285 69.06957092 64.82537445 68.07913208 64.82194519 C66.0434822 64.81689602 64.0078241 64.81453624 61.97216797 64.81469727 C58.93311903 64.81254123 55.8944521 64.79444924 52.85546875 64.77539062 C42.99702406 64.74558588 33.20748518 64.96639923 23.3828125 65.82421875 C22.09417801 65.9282476 22.09417801 65.9282476 20.7795105 66.03437805 C15.86262868 66.52168621 12.3915399 67.59884409 8 70 C2.4835496 70.54260168 -1.49136765 69.76424744 -6.62890625 67.75390625 C-13.64750906 65.52229119 -20.96123538 65.80831766 -28.25 65.8125 C-29.42353027 65.81185547 -30.59706055 65.81121094 -31.80615234 65.81054688 C-42.64041328 65.87396413 -53.37444954 66.63415681 -64.1640625 67.5625 C-69.13197295 67.97689722 -74.01650048 68.0835807 -79 68 C-79 67.67 -79 67.34 -79 67 C-72.565 66.01 -72.565 66.01 -66 65 C-72.21208953 64.95025354 -78.36273111 65.12240091 -84.5625 65.5 C-85.78936523 65.57154297 -85.78936523 65.57154297 -87.04101562 65.64453125 C-89.0274809 65.76069881 -91.01376186 65.8800115 -93 66 C-93.495 66.99 -93.495 66.99 -94 68 C-89.38 68 -84.76 68 -80 68 C-80 68.33 -80 68.66 -80 69 C-81.89492006 69.33848652 -83.79098466 69.67056911 -85.6875 70 C-86.74324219 70.185625 -87.79898438 70.37125 -88.88671875 70.5625 C-91.64904062 70.95068074 -94.21742043 71.08259976 -97 71 C-95.125 65.25 -95.125 65.25 -94 63 C-93.88335847 61.47679884 -93.82133816 59.94919464 -93.7890625 58.421875 C-93.76070312 57.50792969 -93.73234375 56.59398437 -93.703125 55.65234375 C-93.65146723 53.73325753 -93.60707312 51.81396062 -93.5703125 49.89453125 C-93.39109628 44.57031614 -93.03569059 40.5759671 -90 36 C-89.01 35.505 -89.01 35.505 -88 35 C-88 35.66 -88 36.32 -88 37 C-84.7 37 -81.4 37 -78 37 C-78 37.33 -78 37.66 -78 38 C-78.69867188 38.04898438 -79.39734375 38.09796875 -80.1171875 38.1484375 C-81.02726563 38.22320312 -81.93734375 38.29796875 -82.875 38.375 C-83.77992188 38.44460938 -84.68484375 38.51421875 -85.6171875 38.5859375 C-88.17941903 38.79568132 -88.17941903 38.79568132 -90 41 C-85.71 40.34 -81.42 39.68 -77 39 C-77 38.67 -77 38.34 -77 38 C-58.61496627 36.88450357 -38.09549818 41.64962996 -20.75 47.58203125 C-18.90572949 48.22068114 -18.90572949 48.22068114 -17 47 C-14.2720711 48.24344173 -11.64607619 49.53813278 -9 50.9375 C-7.54349966 51.70012561 -6.08524246 52.4594081 -4.625 53.21484375 C-3.97789062 53.55636475 -3.33078125 53.89788574 -2.6640625 54.24975586 C-1.0003511 55.13700323 -1.0003511 55.13700323 1 55 C-0.98 52.36 -2.96 49.72 -5 47 C-4.34 47 -3.68 47 -3 47 C-3.495 45.02 -3.495 45.02 -4 43 C-0.88570788 45.80286291 0.56171454 48.09330571 2 52 C2.04971295 46.04094639 2.0858671 40.08201551 2.10986328 34.12280273 C2.11987483 32.09869278 2.1334881 30.07459711 2.15087891 28.05053711 C2.17534141 25.12870744 2.18653184 22.20707022 2.1953125 19.28515625 C2.20563507 18.39103531 2.21595764 17.49691437 2.22659302 16.57569885 C2.22761472 10.75766636 1.44431137 5.63981102 0 0 Z " fill="#EFEEEB" transform="translate(247,236)"/>
<path d="M0 0 C3.23475448 1.61737724 4.70572021 2.47629223 7 5 C6.67 5.66 6.34 6.32 6 7 C4.02 5.35 2.04 3.7 0 2 C-0.08121094 2.68835938 -0.16242188 3.37671875 -0.24609375 4.0859375 C-1.19075577 7.73732541 -2.99240677 10.52820558 -5.0625 13.625 C-5.4644458 14.23891602 -5.8663916 14.85283203 -6.28051758 15.48535156 C-9.41655159 20.23344627 -12.75716339 24.8161849 -16.140625 29.390625 C-19.60923631 34.25834003 -23.10174303 39.30522908 -25 45 C-24.01 44.67 -23.02 44.34 -22 44 C-13.58928162 42.79601168 -7.47760087 45.76834024 -0.75390625 50.62109375 C9.36617951 59.00940013 24.61828294 75.7056413 26 89 C26 89.66 26 90.32 26 91 C26.95091503 92.40939193 27.95919305 93.78062435 29 95.125 C29.556875 95.84945312 30.11375 96.57390625 30.6875 97.3203125 C31.3371875 98.15175781 31.3371875 98.15175781 32 99 C29.04102308 97.8746748 26.1788026 96.62599234 23.3359375 95.23828125 C22.68882812 94.92439453 22.04171875 94.61050781 21.375 94.28710938 C20.0307234 93.63203709 18.68959859 92.97046088 17.3515625 92.30273438 C13.32754635 90.225552 13.32754635 90.225552 9 91 C6.53006945 90.32638258 4.16468048 89.58425595 1.75 88.75 C-12.29430089 84.15953988 -26.34807295 82.34059612 -41 81 C-41 81.33 -41 81.66 -41 82 C-51.395 82.99 -51.395 82.99 -62 84 C-61.01 82.35 -60.02 80.7 -59 79 C-58.63557767 77.33985384 -58.30027117 75.67293936 -58 74 C-57.649375 73.319375 -57.29875 72.63875 -56.9375 71.9375 C-55.70962605 69.75862665 -55.70962605 69.75862665 -56 66 C-54.25 63.859375 -54.25 63.859375 -52 61.75 C-51.2575 61.04359375 -50.515 60.3371875 -49.75 59.609375 C-49.1725 59.07828125 -48.595 58.5471875 -48 58 C-51.3 57.34 -54.6 56.68 -58 56 C-59 51 -59 51 -58.20703125 49.21875 C-52.78015446 42.53016237 -46.93470441 36.23770539 -41 30 C-40.52868652 29.50000488 -40.05737305 29.00000977 -39.57177734 28.48486328 C-34.57244707 23.20453188 -29.36873188 18.22469329 -23.6875 13.6875 C-22.74261719 12.92824219 -21.79773438 12.16898438 -20.82421875 11.38671875 C-18 10 -18 10 -14.95703125 10.70703125 C-13.98121094 11.13371094 -13.00539062 11.56039062 -12 12 C-9.525 12.495 -9.525 12.495 -7 13 C-3.535 6.565 -3.535 6.565 0 0 Z " fill="#F0EFED" transform="translate(218,194)"/>
<path d="M0 0 C3.8471712 0.56995129 4.37058004 1.16348407 6.8125 4 C8.0809375 5.7325 8.0809375 5.7325 9.375 7.5 C4.095 8.16 -1.185 8.82 -6.625 9.5 C-1.345 9.5 3.935 9.5 9.375 9.5 C9.375 10.16 9.375 10.82 9.375 11.5 C8.385 11.83 7.395 12.16 6.375 12.5 C7.695 12.83 9.015 13.16 10.375 13.5 C10.375 20.76 10.375 28.02 10.375 35.5 C8.06628906 35.34660156 5.75757813 35.19320312 3.37890625 35.03515625 C-7.96702673 34.3370078 -19.32427675 34.15488032 -30.6875 33.9375 C-32.82617793 33.89417802 -34.96484988 33.85056009 -37.10351562 33.80664062 C-42.27728141 33.70102432 -47.45111085 33.59938111 -52.625 33.5 C-52.625 33.17 -52.625 32.84 -52.625 32.5 C-49.31356994 31.77586627 -46.14655779 31.33645745 -42.76171875 31.18359375 C-41.87548828 31.14169922 -40.98925781 31.09980469 -40.07617188 31.05664062 C-38.7081543 30.99766602 -38.7081543 30.99766602 -37.3125 30.9375 C-36.38115234 30.89431641 -35.44980469 30.85113281 -34.49023438 30.80664062 C-32.20197723 30.70102876 -29.91350682 30.60005565 -27.625 30.5 C-33.565 30.5 -39.505 30.5 -45.625 30.5 C-45.295 29.84 -44.965 29.18 -44.625 28.5 C-34.14051343 26.13292094 -23.37105476 26.24544311 -12.6875 26.375 C-11.21419893 26.38506997 -9.74089104 26.39418858 -8.26757812 26.40234375 C-4.71990616 26.42399313 -1.17249978 26.45829113 2.375 26.5 C2.375 25.84 2.375 25.18 2.375 24.5 C1.715 24.83 1.055 25.16 0.375 25.5 C-0.98252296 25.61704964 -2.34525888 25.67677189 -3.70751953 25.70532227 C-4.54824005 25.72526749 -5.38896057 25.74521271 -6.25515747 25.76576233 C-7.16353363 25.78247482 -8.07190979 25.79918732 -9.0078125 25.81640625 C-9.93721649 25.83718735 -10.86662048 25.85796844 -11.82418823 25.87937927 C-14.7993821 25.94487646 -17.77466577 26.00376052 -20.75 26.0625 C-22.76433228 26.10568506 -24.77865541 26.14929934 -26.79296875 26.19335938 C-31.73688663 26.30055803 -36.68089503 26.40182501 -41.625 26.5 C-41.625 26.17 -41.625 25.84 -41.625 25.5 C-33.705 24.015 -33.705 24.015 -25.625 22.5 C-27.501875 22.809375 -29.37875 23.11875 -31.3125 23.4375 C-32.36824219 23.61152344 -33.42398438 23.78554688 -34.51171875 23.96484375 C-37.22749604 24.43167121 -39.92624235 24.94422616 -42.625 25.5 C-42.625 26.16 -42.625 26.82 -42.625 27.5 C-45.54016484 28.03084792 -48.45660557 28.54999055 -51.375 29.0625 C-52.2 29.21396484 -53.025 29.36542969 -53.875 29.52148438 C-54.67421875 29.66005859 -55.4734375 29.79863281 -56.296875 29.94140625 C-57.0300293 30.07232666 -57.76318359 30.20324707 -58.51855469 30.33813477 C-60.81097794 30.51429107 -62.4188551 30.09615978 -64.625 29.5 C-65.945 29.5 -67.265 29.5 -68.625 29.5 C-69.96664079 29.2018576 -71.30351173 28.87756808 -72.625 28.5 C-69.37985721 25.73052799 -66.33372617 24.58777892 -62.26171875 23.37890625 C-61.6408287 23.19396103 -61.01993866 23.00901581 -60.38023376 22.81846619 C-58.36062757 22.22236544 -56.33713012 21.64128953 -54.3125 21.0625 C-53.62524841 20.86301758 -52.93799683 20.66353516 -52.22991943 20.45800781 C-40.40078197 17.03803197 -28.56620568 14.52321959 -16.35791016 12.83789062 C-14.6017259 12.66296263 -14.6017259 12.66296263 -13.625 11.5 C-24.78952403 11.97307305 -35.34031309 14.84827127 -45.95703125 18.1328125 C-46.85687744 18.41036377 -47.75672363 18.68791504 -48.68383789 18.97387695 C-50.45064119 19.52445024 -52.21431849 20.085178 -53.97436523 20.65698242 C-55.18588257 21.03753784 -55.18588257 21.03753784 -56.421875 21.42578125 C-57.13698242 21.65692627 -57.85208984 21.88807129 -58.58886719 22.1262207 C-60.91103772 22.55250884 -62.39998584 22.22635018 -64.625 21.5 C-48.75968267 4.27816855 -21.72884513 2.99708209 0 0 Z " fill="#FDFCFC" transform="translate(334.625,263.5)"/>
<path d="M0 0 C2.40921705 2.40921705 3.53812156 4.94334509 5 8 C6.98 5.36 8.96 2.72 11 0 C11 3.61461272 10.21444726 4.21950394 8.02734375 6.984375 C4.2994536 12.41672536 4.25987431 16.81920419 4.5625 23.25 C4.58699219 24.28253906 4.61148438 25.31507813 4.63671875 26.37890625 C4.72292832 29.58825324 4.85586049 32.79277382 5 36 C5.0616333 37.56331055 5.0616333 37.56331055 5.12451172 39.15820312 C5.35972142 45.10929197 5.65317366 51.05440565 6 57 C6.59167969 56.23816406 7.18335938 55.47632813 7.79296875 54.69140625 C10.84523291 50.96926465 14.31089312 48.07706328 18 45 C18.76401123 44.34354492 18.76401123 44.34354492 19.54345703 43.67382812 C40.2919478 25.88768367 64.08628333 15.35200525 91 11 C90.67 9.68 90.34 8.36 90 7 C91.5 8.3125 91.5 8.3125 93 10 C93 10.99 93 11.98 93 13 C90.03 13.66 87.06 14.32 84 15 C84.79664063 15.58007812 84.79664063 15.58007812 85.609375 16.171875 C93.28045326 21.82719547 93.28045326 21.82719547 96 25 C96 25.66 96 26.32 96 27 C92.02532029 28.85336189 88.74038685 29.27779073 84.375 29.4375 C65.15353094 30.44763726 40.33208651 33.59332292 25.60546875 47.21484375 C25.07566406 47.80394531 24.54585938 48.39304687 24 49 C30.6569157 47.58031084 37.19473971 45.89037059 43.75 44.0625 C47.49859104 43.03646119 51.24924963 42.01811132 55 41 C55.70398926 40.80664062 56.40797852 40.61328125 57.13330078 40.4140625 C64.20119659 38.49534372 69.7609944 37.65035489 77 39 C74.19195331 40.54733958 71.83900877 41.32920421 68.66796875 41.75390625 C56.78818307 43.50265669 45.33759994 46.05817083 33.8125 49.375 C33.16268158 49.55773468 32.51286316 49.74046936 31.84335327 49.92874146 C25.02747336 51.85684925 18.75996111 53.99003724 12.51171875 57.3515625 C8.88430117 59.25370419 7.29548753 59.99642555 3.125 60.046875 C-0.06878916 58.97695563 -2.99313193 57.76909481 -6 56.25 C-23.17210594 48.06534745 -42.89821122 42.77836844 -61.99609375 42.90234375 C-62.82963882 42.9037587 -63.6631839 42.90517365 -64.52198792 42.90663147 C-67.16052986 42.91218832 -69.79898409 42.9247326 -72.4375 42.9375 C-74.23632689 42.94252058 -76.03515513 42.94708251 -77.83398438 42.95117188 C-82.22271649 42.96128882 -86.61126111 42.98087232 -91 43 C-91 50.26 -91 57.52 -91 65 C-88.03 64.34 -85.06 63.68 -82 63 C-72.53025323 61.53557037 -62.86581357 61.88447606 -53.3125 61.9375 C-51.72461079 61.94252753 -50.13672004 61.94708821 -48.54882812 61.95117188 C-44.69917975 61.96207245 -40.84960747 61.97926717 -37 62 C-37 62.33 -37 62.66 -37 63 C-37.70793701 63.01981934 -38.41587402 63.03963867 -39.14526367 63.06005859 C-52.20563639 63.44192233 -65.20486978 63.90648496 -78.19799805 65.33935547 C-83.16900742 65.87971588 -87.99827426 66.08574387 -93 66 C-93.495 66.99 -93.495 66.99 -94 68 C-89.38 68 -84.76 68 -80 68 C-80 68.33 -80 68.66 -80 69 C-81.89492006 69.33848652 -83.79098466 69.67056911 -85.6875 70 C-86.74324219 70.185625 -87.79898438 70.37125 -88.88671875 70.5625 C-91.64904062 70.95068074 -94.21742043 71.08259976 -97 71 C-95.125 65.25 -95.125 65.25 -94 63 C-93.88335847 61.47679884 -93.82133816 59.94919464 -93.7890625 58.421875 C-93.76070312 57.50792969 -93.73234375 56.59398437 -93.703125 55.65234375 C-93.65146723 53.73325753 -93.60707312 51.81396062 -93.5703125 49.89453125 C-93.39109628 44.57031614 -93.03569059 40.5759671 -90 36 C-89.01 35.505 -89.01 35.505 -88 35 C-88 35.66 -88 36.32 -88 37 C-84.7 37 -81.4 37 -78 37 C-78 37.33 -78 37.66 -78 38 C-78.69867188 38.04898438 -79.39734375 38.09796875 -80.1171875 38.1484375 C-81.02726563 38.22320312 -81.93734375 38.29796875 -82.875 38.375 C-83.77992188 38.44460938 -84.68484375 38.51421875 -85.6171875 38.5859375 C-88.17941903 38.79568132 -88.17941903 38.79568132 -90 41 C-85.71 40.34 -81.42 39.68 -77 39 C-77 38.67 -77 38.34 -77 38 C-58.61496627 36.88450357 -38.09549818 41.64962996 -20.75 47.58203125 C-18.90572949 48.22068114 -18.90572949 48.22068114 -17 47 C-14.2720711 48.24344173 -11.64607619 49.53813278 -9 50.9375 C-7.54349966 51.70012561 -6.08524246 52.4594081 -4.625 53.21484375 C-3.97789062 53.55636475 -3.33078125 53.89788574 -2.6640625 54.24975586 C-1.0003511 55.13700323 -1.0003511 55.13700323 1 55 C-0.98 52.36 -2.96 49.72 -5 47 C-4.34 47 -3.68 47 -3 47 C-3.495 45.02 -3.495 45.02 -4 43 C-0.88570788 45.80286291 0.56171454 48.09330571 2 52 C2.04971295 46.04094639 2.0858671 40.08201551 2.10986328 34.12280273 C2.11987483 32.09869278 2.1334881 30.07459711 2.15087891 28.05053711 C2.17534141 25.12870744 2.18653184 22.20707022 2.1953125 19.28515625 C2.20563507 18.39103531 2.21595764 17.49691437 2.22659302 16.57569885 C2.22761472 10.75766636 1.44431137 5.63981102 0 0 Z " fill="#ECEAE7" transform="translate(247,236)"/>
<path d="M0 0 C6.19004894 2.07863372 11.89729179 4.90418991 17.64453125 7.9765625 C20.36580631 9.4150397 23.01980241 10.64274851 25.87109375 11.78125 C31.44771752 14.18049511 36.47784739 17.82554006 41.05859375 21.78125 C41.05859375 22.44125 41.05859375 23.10125 41.05859375 23.78125 C41.71859375 23.78125 42.37859375 23.78125 43.05859375 23.78125 C44.10209214 25.42103318 45.09041383 27.09589976 46.05859375 28.78125 C47.68828079 31.14283242 49.37345253 33.45848778 51.05859375 35.78125 C48.09961683 34.6559248 45.23739635 33.40724234 42.39453125 32.01953125 C41.74742187 31.70564453 41.1003125 31.39175781 40.43359375 31.06835938 C39.08931715 30.41328709 37.74819234 29.75171088 36.41015625 29.08398438 C32.3861401 27.006802 32.3861401 27.006802 28.05859375 27.78125 C25.5886632 27.10763258 23.22327423 26.36550595 20.80859375 25.53125 C6.76429286 20.94078988 -7.2894792 19.12184612 -21.94140625 17.78125 C-21.94140625 18.11125 -21.94140625 18.44125 -21.94140625 18.78125 C-32.33640625 19.77125 -32.33640625 19.77125 -42.94140625 20.78125 C-41.95140625 19.13125 -40.96140625 17.48125 -39.94140625 15.78125 C-39.57698392 14.12110384 -39.24167742 12.45418936 -38.94140625 10.78125 C-38.59078125 10.100625 -38.24015625 9.42 -37.87890625 8.71875 C-36.6510323 6.53987665 -36.6510323 6.53987665 -36.94140625 2.78125 C-35.26171875 0.67578125 -35.26171875 0.67578125 -33.06640625 -1.40625 C-32.34710938 -2.10105469 -31.6278125 -2.79585937 -30.88671875 -3.51171875 C-23.65880424 -9.8542863 -8.29498378 -2.61671659 0 0 Z " fill="#FBFAFA" transform="translate(198.94140625,257.21875)"/>
<path d="M0 0 C2.40921705 2.40921705 3.53812156 4.94334509 5 8 C6.98 5.36 8.96 2.72 11 0 C11 3.61461272 10.21444726 4.21950394 8.02734375 6.984375 C4.2994536 12.41672536 4.25987431 16.81920419 4.5625 23.25 C4.58699219 24.28253906 4.61148438 25.31507813 4.63671875 26.37890625 C4.72292832 29.58825324 4.85586049 32.79277382 5 36 C5.0616333 37.56331055 5.0616333 37.56331055 5.12451172 39.15820312 C5.35972142 45.10929197 5.65317366 51.05440565 6 57 C6.99 56.34 7.98 55.68 9 55 C9.825 54.690625 10.65 54.38125 11.5 54.0625 C13.981784 53.0077418 15.25818361 52.01684003 17 50 C17.66 50.33 18.32 50.66 19 51 C19 51.99 19 52.98 19 54 C17.1583733 55.04328606 15.30096642 56.05874324 13.4375 57.0625 C11.88869141 57.91521484 11.88869141 57.91521484 10.30859375 58.78515625 C5.33137518 60.61268278 1.81699135 59.74761623 -3 57.765625 C-3.99 57.26546875 -4.98 56.7653125 -6 56.25 C-23.17210594 48.06534745 -42.89821122 42.77836844 -61.99609375 42.90234375 C-62.82963882 42.9037587 -63.6631839 42.90517365 -64.52198792 42.90663147 C-67.16052986 42.91218832 -69.79898409 42.9247326 -72.4375 42.9375 C-74.23632689 42.94252058 -76.03515513 42.94708251 -77.83398438 42.95117188 C-82.22271649 42.96128882 -86.61126111 42.98087232 -91 43 C-91 50.26 -91 57.52 -91 65 C-88.03 64.34 -85.06 63.68 -82 63 C-72.53025323 61.53557037 -62.86581357 61.88447606 -53.3125 61.9375 C-51.72461079 61.94252753 -50.13672004 61.94708821 -48.54882812 61.95117188 C-44.69917975 61.96207245 -40.84960747 61.97926717 -37 62 C-37 62.33 -37 62.66 -37 63 C-37.70793701 63.01981934 -38.41587402 63.03963867 -39.14526367 63.06005859 C-52.20563639 63.44192233 -65.20486978 63.90648496 -78.19799805 65.33935547 C-83.16900742 65.87971588 -87.99827426 66.08574387 -93 66 C-93.495 66.99 -93.495 66.99 -94 68 C-89.38 68 -84.76 68 -80 68 C-80 68.33 -80 68.66 -80 69 C-81.89492006 69.33848652 -83.79098466 69.67056911 -85.6875 70 C-86.74324219 70.185625 -87.79898438 70.37125 -88.88671875 70.5625 C-91.64904062 70.95068074 -94.21742043 71.08259976 -97 71 C-95.125 65.25 -95.125 65.25 -94 63 C-93.88335847 61.47679884 -93.82133816 59.94919464 -93.7890625 58.421875 C-93.76070312 57.50792969 -93.73234375 56.59398437 -93.703125 55.65234375 C-93.65146723 53.73325753 -93.60707312 51.81396062 -93.5703125 49.89453125 C-93.39109628 44.57031614 -93.03569059 40.5759671 -90 36 C-89.01 35.505 -89.01 35.505 -88 35 C-88 35.66 -88 36.32 -88 37 C-84.7 37 -81.4 37 -78 37 C-78 37.33 -78 37.66 -78 38 C-78.69867188 38.04898438 -79.39734375 38.09796875 -80.1171875 38.1484375 C-81.02726563 38.22320312 -81.93734375 38.29796875 -82.875 38.375 C-83.77992188 38.44460938 -84.68484375 38.51421875 -85.6171875 38.5859375 C-88.17941903 38.79568132 -88.17941903 38.79568132 -90 41 C-85.71 40.34 -81.42 39.68 -77 39 C-77 38.67 -77 38.34 -77 38 C-58.61496627 36.88450357 -38.09549818 41.64962996 -20.75 47.58203125 C-18.90572949 48.22068114 -18.90572949 48.22068114 -17 47 C-14.2720711 48.24344173 -11.64607619 49.53813278 -9 50.9375 C-7.54349966 51.70012561 -6.08524246 52.4594081 -4.625 53.21484375 C-3.97789062 53.55636475 -3.33078125 53.89788574 -2.6640625 54.24975586 C-1.0003511 55.13700323 -1.0003511 55.13700323 1 55 C-0.98 52.36 -2.96 49.72 -5 47 C-4.34 47 -3.68 47 -3 47 C-3.495 45.02 -3.495 45.02 -4 43 C-0.88570788 45.80286291 0.56171454 48.09330571 2 52 C2.04971295 46.04094639 2.0858671 40.08201551 2.10986328 34.12280273 C2.11987483 32.09869278 2.1334881 30.07459711 2.15087891 28.05053711 C2.17534141 25.12870744 2.18653184 22.20707022 2.1953125 19.28515625 C2.20563507 18.39103531 2.21595764 17.49691437 2.22659302 16.57569885 C2.22761472 10.75766636 1.44431137 5.63981102 0 0 Z " fill="#ADA799" transform="translate(247,236)"/>
<path d="M0 0 C2.89532287 1.29790335 4.96392067 2.55104902 7 5 C7.51171875 6.953125 7.51171875 6.953125 7.6875 9.25 C7.75582031 10.1265625 7.82414063 11.003125 7.89453125 11.90625 C8.06028479 16.76835378 7.91506298 21.62352328 7.7421875 26.484375 C8.0258419 30.35238958 9.12691028 32.64609067 11 36 C11 36.66 11 37.32 11 38 C8.64558284 37.85758352 6.29152516 37.71115192 3.9375 37.5625 C2.62652344 37.48128906 1.31554687 37.40007812 -0.03515625 37.31640625 C-4 37 -4 37 -7.12231445 36.49072266 C-11.77560115 35.90184736 -16.32281927 35.83779728 -21.0078125 35.83203125 C-21.96912079 35.82870285 -22.93042908 35.82537445 -23.92086792 35.82194519 C-25.9565178 35.81689602 -27.9921759 35.81453624 -30.02783203 35.81469727 C-33.06688097 35.81254123 -36.1055479 35.79444924 -39.14453125 35.77539062 C-49.00297594 35.74558588 -58.79251482 35.96639923 -68.6171875 36.82421875 C-69.47627716 36.89357132 -70.33536682 36.96292389 -71.2204895 37.03437805 C-76.13737132 37.52168621 -79.6084601 38.59884409 -84 41 C-89.5164504 41.54260168 -93.49136765 40.76424744 -98.62890625 38.75390625 C-105.64750906 36.52229119 -112.96123538 36.80831766 -120.25 36.8125 C-121.42353027 36.81185547 -122.59706055 36.81121094 -123.80615234 36.81054688 C-134.64041328 36.87396413 -145.37444954 37.63415681 -156.1640625 38.5625 C-161.13197295 38.97689722 -166.01650048 39.0835807 -171 39 C-171 38.67 -171 38.34 -171 38 C-161.72476733 36.35506155 -152.54210886 35.49983698 -143.15209961 34.99462891 C-140.93619797 34.87492967 -138.72108541 34.7448401 -136.50585938 34.61328125 C-126.02359662 34.00921073 -115.55228197 33.63787342 -105.0625 34.3125 C-103.50208984 34.39951172 -103.50208984 34.39951172 -101.91015625 34.48828125 C-98.66795526 35.05838639 -96.74530765 36.23059905 -94 38 C-87.75402152 39.58796063 -84.48579275 38.61795716 -78.6875 36.0546875 C-64.81153057 30.60917624 -47.70362081 31.83295347 -32.99536133 31.86962891 C-30.43760271 31.87499978 -27.88001904 31.86964321 -25.32226562 31.86328125 C-2.58863497 31.85284126 -2.58863497 31.85284126 6 34 C6 26.74 6 19.48 6 12 C0.555 11.505 0.555 11.505 -5 11 C-5 10.67 -5 10.34 -5 10 C-1.7 10 1.6 10 5 10 C5 9.34 5 8.68 5 8 C-5.395 8.495 -5.395 8.495 -16 9 C-13.68600977 6.68600977 -13.01395276 6.67743196 -9.8671875 6.3671875 C-9.06152344 6.28339844 -8.25585938 6.19960938 -7.42578125 6.11328125 C-6.58402344 6.03464844 -5.74226562 5.95601563 -4.875 5.875 C-4.02550781 5.78863281 -3.17601562 5.70226562 -2.30078125 5.61328125 C-0.20130273 5.40097443 1.89926242 5.19946397 4 5 C2.02 2.525 2.02 2.525 0 0 Z " fill="#ADA799" transform="translate(339,265)"/>
<path d="M0 0 C4.44334196 0.64433613 5.66714935 2.4913642 8.30078125 5.95703125 C8.82865234 6.715 8.82865234 6.715 9.3671875 7.48828125 C8.66335938 7.55821289 7.95953125 7.62814453 7.234375 7.70019531 C-6.37839674 9.08190941 -19.47486056 10.65519144 -32.6328125 14.48828125 C-35.85410875 15.40270353 -39.07695976 16.31142554 -42.30053711 17.21777344 C-44.51680279 17.84320505 -46.73126264 18.47508169 -48.94360352 19.11425781 C-54.17451196 20.60915626 -59.2188913 21.91233219 -64.6328125 22.48828125 C-62.33104183 16.46421859 -56.17087646 14.10165336 -50.6328125 11.48828125 C-34.1284363 4.5016682 -17.56148889 2.36041517 0 0 Z " fill="#FDFDFD" transform="translate(334.6328125,263.51171875)"/>
<path d="M0 0 C20.42325137 4.6610146 40.24675368 10.00156923 59.75 17.75 C60.47219727 18.03166016 61.19439453 18.31332031 61.93847656 18.60351562 C63.66409097 19.31551212 65.3388625 20.14835083 67 21 C67.495 22.485 67.495 22.485 68 24 C67.46117187 23.84144531 66.92234375 23.68289063 66.3671875 23.51953125 C49.74688072 18.80436585 33.23249683 15.33323012 16 14 C16 14.33 16 14.66 16 15 C5.605 15.99 5.605 15.99 -5 17 C-4.01 15.35 -3.02 13.7 -2 12 C-1.63557767 10.33985384 -1.30027117 8.67293936 -1 7 C-0.62875 6.29875 -0.2575 5.5975 0.125 4.875 C1.33193231 2.84955586 1.33193231 2.84955586 0 0 Z " fill="#F4F3F2" transform="translate(161,261)"/>
<path d="M0 0 C23.01065462 -0.56086718 44.02499447 0.33524854 66 8 C66 8.66 66 9.32 66 10 C61.71 9.67 57.42 9.34 53 9 C53 9.66 53 10.32 53 11 C53.60062256 11.08040527 54.20124512 11.16081055 54.82006836 11.24365234 C57.52724957 11.61139462 60.23229515 11.9930023 62.9375 12.375 C63.88302734 12.50132812 64.82855469 12.62765625 65.80273438 12.7578125 C67.15141602 12.95117188 67.15141602 12.95117188 68.52734375 13.1484375 C69.35999756 13.26364746 70.19265137 13.37885742 71.05053711 13.49755859 C72.01552124 13.74626709 72.01552124 13.74626709 73 14 C73.495 14.99 73.495 14.99 74 16 C68.3522033 16.10117359 62.98342601 15.71152936 57.38671875 15.0078125 C46.51979013 13.75845573 35.73665611 13.77438652 24.8125 13.875 C22.87565576 13.88506828 20.93880635 13.8941872 19.00195312 13.90234375 C14.3345035 13.92401026 9.66731201 13.95831898 5 14 C5.33 13.34 5.66 12.68 6 12 C16.395 11.505 16.395 11.505 27 11 C21.555 10.505 21.555 10.505 16 10 C16 9.67 16 9.34 16 9 C24.58 9 33.16 9 42 9 C41.505 8.01 41.505 8.01 41 7 C40.34 7.33 39.68 7.66 39 8 C36.08070205 8.01666138 33.18963383 7.97245606 30.2734375 7.87890625 C29.41062164 7.85529526 28.54780579 7.83168427 27.65884399 7.80735779 C24.89739794 7.73065703 22.13622782 7.64666038 19.375 7.5625 C17.50522193 7.50928573 15.63543031 7.45654529 13.765625 7.40429688 C9.17690791 7.27503321 4.58842523 7.13922496 0 7 C0 6.67 0 6.34 0 6 C7.26 5.67 14.52 5.34 22 5 C17.05 4.67 12.1 4.34 7 4 C7 3.67 7 3.34 7 3 C4.69 3 2.38 3 0 3 C0 2.01 0 1.02 0 0 Z " fill="#FDFDFC" transform="translate(162,278)"/>
<path d="M0 0 C2.89532287 1.29790335 4.96392067 2.55104902 7 5 C7.51171875 6.953125 7.51171875 6.953125 7.6875 9.25 C7.78998047 10.56484375 7.78998047 10.56484375 7.89453125 11.90625 C8.06028479 16.76835378 7.91506298 21.62352328 7.7421875 26.484375 C8.0258419 30.35238958 9.12691028 32.64609067 11 36 C11 36.66 11 37.32 11 38 C8.64558284 37.85758352 6.29152516 37.71115192 3.9375 37.5625 C2.62652344 37.48128906 1.31554687 37.40007812 -0.03515625 37.31640625 C-2.47164334 37.12196738 -4.90525206 36.86375983 -7.32226562 36.5 C-10.84262458 36.0213957 -14.25949536 35.79808079 -17.80859375 35.68359375 C-19.66967773 35.62075195 -19.66967773 35.62075195 -21.56835938 35.55664062 C-23.48358398 35.49766602 -23.48358398 35.49766602 -25.4375 35.4375 C-26.74138672 35.39431641 -28.04527344 35.35113281 -29.38867188 35.30664062 C-32.59235316 35.20102476 -35.79610611 35.09891899 -39 35 C-39 34.67 -39 34.34 -39 34 C-42.63 33.67 -46.26 33.34 -50 33 C-50 32.67 -50 32.34 -50 32 C-44.68384124 31.97499455 -39.36771788 31.95699773 -34.05151367 31.94506836 C-32.24877322 31.94008708 -30.4460367 31.93329964 -28.64331055 31.92456055 C-2.78996321 31.8025092 -2.78996321 31.8025092 6 34 C6 26.74 6 19.48 6 12 C0.555 11.505 0.555 11.505 -5 11 C-5 10.67 -5 10.34 -5 10 C-1.7 10 1.6 10 5 10 C5 9.34 5 8.68 5 8 C-5.395 8.495 -5.395 8.495 -16 9 C-13.68600977 6.68600977 -13.01395276 6.67743196 -9.8671875 6.3671875 C-9.06152344 6.28339844 -8.25585938 6.19960938 -7.42578125 6.11328125 C-6.58402344 6.03464844 -5.74226563 5.95601563 -4.875 5.875 C-3.60076172 5.74544922 -3.60076172 5.74544922 -2.30078125 5.61328125 C-0.20130273 5.40097443 1.89926242 5.19946397 4 5 C2.68 3.35 1.36 1.7 0 0 Z " fill="#ABA497" transform="translate(339,265)"/>
<path d="M0 0 C-0.33 1.32 -0.66 2.64 -1 4 C-2.26106567 4.24121582 -2.26106567 4.24121582 -3.54760742 4.48730469 C-6.73396877 5.10039446 -9.918979 5.72001101 -13.10327148 6.34375 C-14.46899187 6.60995109 -15.83519037 6.87371349 -17.2019043 7.13476562 C-25.43183079 8.70871258 -33.38563382 10.57955192 -41.3215332 13.33691406 C-44.05739217 14.01420811 -45.39403126 13.96681169 -48 13 C-44.64819353 10.09693833 -41.4165403 9.02510749 -37.1796875 7.80859375 C-36.52098663 7.61781754 -35.86228577 7.42704132 -35.18362427 7.23048401 C-33.79121308 6.82907567 -32.3976127 6.43177241 -31.00292969 6.03833008 C-28.9001298 5.44459551 -26.8014829 4.83774018 -24.703125 4.22851562 C-4.64448347 -1.54816116 -4.64448347 -1.54816116 0 0 Z " fill="#FCFBFB" transform="translate(310,279)"/>
<path d="M0 0 C0.33 0 0.66 0 1 0 C1 6.93 1 13.86 1 21 C3.97 20.34 6.94 19.68 10 19 C19.46974677 17.53557037 29.13418643 17.88447606 38.6875 17.9375 C40.27538921 17.94252753 41.86327996 17.94708821 43.45117188 17.95117188 C47.30082025 17.96207245 51.15039253 17.97926717 55 18 C55 18.33 55 18.66 55 19 C54.29206299 19.01981934 53.58412598 19.03963867 52.85473633 19.06005859 C39.79436361 19.44192233 26.79513022 19.90648496 13.80200195 21.33935547 C8.83099258 21.87971588 4.00172574 22.08574387 -1 22 C-1.33 22.66 -1.66 23.32 -2 24 C2.62 24 7.24 24 12 24 C12 24.33 12 24.66 12 25 C10.10507994 25.33848652 8.20901534 25.67056911 6.3125 26 C5.25675781 26.185625 4.20101562 26.37125 3.11328125 26.5625 C0.35095938 26.95068074 -2.21742043 27.08259976 -5 27 C-3.125 21.25 -3.125 21.25 -2 19 C-1.78217533 17.55487563 -1.61026332 16.10263322 -1.46484375 14.6484375 C-1.37783203 13.79765625 -1.29082031 12.946875 -1.20117188 12.0703125 C-1.11416016 11.18085938 -1.02714844 10.29140625 -0.9375 9.375 C-0.80118164 8.02921875 -0.80118164 8.02921875 -0.66210938 6.65625 C-0.43790708 4.43782728 -0.21735434 2.2191024 0 0 Z " fill="#B1AA9E" transform="translate(155,280)"/>
<path d="M0 0 C0 0.66 0 1.32 0 2 C-5.39460953 4.27141454 -10.26157749 4.20413361 -16 4 C-16 3.67 -16 3.34 -16 3 C-18.31 3 -20.62 3 -23 3 C-20.525 3.495 -20.525 3.495 -18 4 C-18 4.33 -18 4.66 -18 5 C-19.05388916 5.17128418 -20.10777832 5.34256836 -21.19360352 5.51904297 C-25.12854135 6.15970599 -29.06256199 6.80585731 -32.99633789 7.45361328 C-34.69433724 7.73243993 -36.39257707 8.00980638 -38.09106445 8.28564453 C-40.54183626 8.68392191 -42.99167594 9.08755941 -45.44140625 9.4921875 C-46.19273331 9.6131076 -46.94406036 9.73402771 -47.71815491 9.85861206 C-51.16348745 10.43253305 -54.49977563 11.09564545 -57.85131836 12.08642578 C-60.76856464 12.93285019 -62.99028589 13.18240692 -66 13 C-62.5899125 10.72660833 -59.49838752 10.11203685 -55.55859375 9.34375 C-54.07356549 9.04037547 -52.58853951 8.73698971 -51.10351562 8.43359375 C-48.76448263 7.96426046 -46.42495135 7.49750199 -44.08520508 7.03173828 C-41.82502441 6.57946486 -39.56681515 6.11819004 -37.30859375 5.65625 C-36.60649277 5.51973022 -35.90439178 5.38321045 -35.18101501 5.24255371 C-31.1794767 4.45435801 -31.1794767 4.45435801 -28 2 C-18.74960984 0.06136713 -9.42449165 -0.28607226 0 0 Z " fill="#C7C3BA" transform="translate(338,278)"/>
<path d="M0 0 C5.31615876 -0.02500545 10.63228212 -0.04300227 15.94848633 -0.05493164 C17.75122678 -0.05991292 19.5539633 -0.06670036 21.35668945 -0.07543945 C31.6269872 -0.12392461 41.77153425 -0.04008359 52 1 C52 1.33 52 1.66 52 2 C54.475 2.495 54.475 2.495 57 3 C57.33 2.34 57.66 1.68 58 1 C58.495 2.98 58.495 2.98 59 5 C58.13246094 4.93941406 57.26492188 4.87882812 56.37109375 4.81640625 C41.26204857 3.84114514 26.13202794 3.44602983 11 3 C11 2.67 11 2.34 11 2 C7.37 1.67 3.74 1.34 0 1 C0 0.67 0 0.34 0 0 Z " fill="#B7B1A5" transform="translate(289,297)"/>
<path d="M0 0 C1.44583717 0.00212242 1.44583717 0.00212242 2.92088318 0.00428772 C5.96681973 0.00983683 9.01267982 0.02237956 12.05859375 0.03515625 C14.13736872 0.04017784 16.21614486 0.04473959 18.29492188 0.04882812 C23.36200814 0.05978954 28.42903803 0.07701845 33.49609375 0.09765625 C33.49609375 0.42765625 33.49609375 0.75765625 33.49609375 1.09765625 C32.48522705 1.14776855 31.47436035 1.19788086 30.43286133 1.24951172 C7.22397097 2.3481436 7.22397097 2.3481436 -15.94140625 4.09765625 C-16.74795654 4.16839355 -17.55450684 4.23913086 -18.38549805 4.31201172 C-22.66820202 4.73874141 -26.48001868 5.56717603 -30.50390625 7.09765625 C-25.85775576 1.52227566 -19.84698837 1.02280586 -13.02420044 0.29837036 C-8.68296672 -0.04736184 -4.35250866 -0.02452475 0 0 Z " fill="#9E9787" transform="translate(285.50390625,297.90234375)"/>
<path d="M0 0 C-2.83778528 1.56609068 -5.23389143 2.34404183 -8.4375 2.7890625 C-9.31954102 2.92223877 -10.20158203 3.05541504 -11.11035156 3.19262695 C-12.54072754 3.40665161 -12.54072754 3.40665161 -14 3.625 C-24.93976508 5.36154114 -35.36786382 8.20184486 -45.9453125 11.44580078 C-47.08226562 11.78981934 -48.21921875 12.13383789 -49.390625 12.48828125 C-50.9070459 12.96068237 -50.9070459 12.96068237 -52.45410156 13.44262695 C-55 14 -55 14 -58 13 C-46.86378726 8.85065569 -35.70704922 5.38255501 -24.16699219 2.54052734 C-22.18120853 2.04520005 -20.20337084 1.51829508 -18.2265625 0.98828125 C-11.68746918 -0.69603067 -6.65991782 -1.24167959 0 0 Z " fill="#B1AA9E" transform="translate(324,275)"/>
<path d="M0 0 C0.495 0.99 0.495 0.99 1 2 C-2.97467971 3.85336189 -6.25961315 4.27779073 -10.625 4.4375 C-24.17182385 5.14942017 -37.14113058 7.24675509 -49.8984375 11.9140625 C-52.61032426 12.86356441 -55.17271528 13.52349134 -58 14 C-54.34668483 10.76970027 -50.30455227 9.4864551 -45.75 8 C-44.94933105 7.73799805 -44.14866211 7.47599609 -43.32373047 7.20605469 C-29.1742072 2.71778007 -14.72434399 1.28234553 0 0 Z " fill="#AEA79A" transform="translate(342,261)"/>
<path d="M0 0 C1.53333984 0.00676758 1.53333984 0.00676758 3.09765625 0.01367188 C5.60683194 0.025397 8.1158849 0.04180824 10.625 0.0625 C10.295 0.7225 9.965 1.3825 9.625 2.0625 C13.585 2.3925 17.545 2.7225 21.625 3.0625 C21.625 3.3925 21.625 3.7225 21.625 4.0625 C16.39228431 4.13653712 11.15987199 4.19104783 5.92675781 4.22729492 C4.14577933 4.24240173 2.36483816 4.26288835 0.58398438 4.28881836 C-1.97274978 4.32511943 -4.5289931 4.34220688 -7.0859375 4.35546875 C-7.88494476 4.37095261 -8.68395203 4.38643646 -9.50717163 4.40238953 C-11.75146484 4.40307617 -11.75146484 4.40307617 -15.375 4.0625 C-16.035 3.0725 -16.695 2.0825 -17.375 1.0625 C-11.58854356 -0.19156138 -5.88631884 -0.04936913 0 0 Z " fill="#CECAC2" transform="translate(174.375,279.9375)"/>
<path d="M0 0 C3.81300782 3.2870757 5.22972246 6.39727838 7 11 C7.66 10.34 8.32 9.68 9 9 C9.33 10.65 9.66 12.3 10 14 C10.99 13.34 11.98 12.68 13 12 C14.2375 11.5359375 14.2375 11.5359375 15.5 11.0625 C17.981784 10.0077418 19.25818361 9.01684003 21 7 C21.66 7.33 22.32 7.66 23 8 C23 8.99 23 9.98 23 11 C11.35091517 17.59923525 11.35091517 17.59923525 6.9375 17 C4 16 4 16 1 14 C1 13.34 1 12.68 1 12 C2.65 12.33 4.3 12.66 6 13 C3.69 10.36 1.38 7.72 -1 5 C-0.34 4.67 0.32 4.34 1 4 C0.67 2.68 0.34 1.36 0 0 Z " fill="#A09889" transform="translate(243,279)"/>
<path d="M0 0 C3.16764449 0.08190624 6.33350532 0.19464591 9.5 0.3125 C10.386875 0.33505859 11.27375 0.35761719 12.1875 0.38085938 C18.06976183 0.61874496 22.59761712 1.64592428 28 4 C28 4.99 28 5.98 28 7 C18.88310149 6.27643663 9.98361723 4.65707093 1 3 C0.67 2.01 0.34 1.02 0 0 Z " fill="#F3F2F0" transform="translate(211,286)"/>
<path d="M0 0 C0.66 0.33 1.32 0.66 2 1 C0.68 2.65 -0.64 4.3 -2 6 C-1.34 6.66 -0.68 7.32 0 8 C-0.375 10.125 -0.375 10.125 -1 12 C-3.31 12.66 -5.62 13.32 -8 14 C-8 13.34 -8 12.68 -8 12 C-8.94875 12.825 -9.8975 13.65 -10.875 14.5 C-13.75 17 -13.75 17 -16 17 C-15.44255611 13.35272429 -14.19184621 11.94155692 -11.375 9.625 C-10.66085937 9.02816406 -9.94671875 8.43132812 -9.2109375 7.81640625 C-8.48132813 7.21699219 -7.75171875 6.61757813 -7 6 C-5.66431257 4.85691169 -4.3307709 3.71130835 -3 2.5625 C-2.01 1.716875 -1.02 0.87125 0 0 Z " fill="#D4D1CA" transform="translate(272,275)"/>
<path d="M0 0 C3.96 0.33 7.92 0.66 12 1 C12 1.99 12 2.98 12 4 C3.02936472 4.07501577 -5.91137167 3.84050744 -14.875 3.5 C-17.41402718 3.40529838 -19.95308881 3.31151457 -22.4921875 3.21875 C-24.15290283 3.1559082 -24.15290283 3.1559082 -25.84716797 3.09179688 C-28.90023501 3.00290473 -31.94584594 2.98389827 -35 3 C-34.67 2.34 -34.34 1.68 -34 1 C-22.78 1 -11.56 1 0 1 C0 0.67 0 0.34 0 0 Z " fill="#CFCBC3" transform="translate(197,284)"/>
<path d="M0 0 C27.86873215 6.36022957 27.86873215 6.36022957 41.1875 10.8125 C42.05850342 11.1019751 42.92950684 11.3914502 43.8269043 11.68969727 C49.7265625 13.7265625 49.7265625 13.7265625 52 16 C46.20890052 15.27247494 40.8502802 13.45031411 35.3125 11.6875 C27.68238509 9.31820639 20.05832424 7.13934362 12.25 5.4375 C11.45891846 5.25727295 10.66783691 5.0770459 9.8527832 4.89135742 C7.41610501 4.35429658 7.41610501 4.35429658 4 4 C3.01 4.66 2.02 5.32 1 6 C0.67 4.02 0.34 2.04 0 0 Z " fill="#AEA79B" transform="translate(161,261)"/>
<path d="M0 0 C0.84304687 0.22816406 1.68609375 0.45632813 2.5546875 0.69140625 C3.65039062 0.97886719 4.74609375 1.26632812 5.875 1.5625 C7.51082031 1.99755859 7.51082031 1.99755859 9.1796875 2.44140625 C11.9369822 3.2867036 11.9369822 3.2867036 14 2 C16.60474038 3.07408957 19.09966038 4.20045633 21.625 5.4375 C22.33140625 5.77587891 23.0378125 6.11425781 23.765625 6.46289062 C25.51381384 7.30154879 27.25735686 8.14987847 29 9 C28.01 10.485 28.01 10.485 27 12 C26.319375 11.69707031 25.63875 11.39414062 24.9375 11.08203125 C16.45895712 7.41776737 7.84264097 4.63708202 -1 2 C-0.67 1.34 -0.34 0.68 0 0 Z " fill="#AFA99C" transform="translate(216,281)"/>
<path d="M0 0 C8.47392766 0.24996837 16.5314881 1.10768238 24.8125 2.9375 C25.5947998 3.10733398 26.37709961 3.27716797 27.18310547 3.45214844 C32.74059199 4.74059199 32.74059199 4.74059199 35 7 C28.19788908 6.37302282 21.44433263 5.56446377 14.6875 4.5625 C13.82060547 4.44068359 12.95371094 4.31886719 12.06054688 4.19335938 C7.78181349 3.56056586 3.94464078 2.87878767 0 1 C0 0.67 0 0.34 0 0 Z " fill="#9B9383" transform="translate(181,275)"/>
<path d="M0 0 C8.58 0 17.16 0 26 0 C26 0.66 26 1.32 26 2 C7.5858209 4.19402985 7.5858209 4.19402985 0 1 C0 0.67 0 0.34 0 0 Z " fill="#DDDBD5" transform="translate(318,273)"/>
<path d="M0 0 C-6.88160129 3.9849662 -16.17823833 4.36380287 -24 4 C-18.24475742 -1.75524258 -7.49079797 -1.39658945 0 0 Z " fill="#A39C8D" transform="translate(324,275)"/>
<path d="M0 0 C0.33 0.99 0.66 1.98 1 3 C1.99 2.67 2.98 2.34 4 2 C11.26052038 0.9606617 16.95762647 2.94509905 23 7 C23.99 8.485 23.99 8.485 25 10 C22.23936931 8.91247882 19.6652998 7.8148467 17.0625 6.375 C11.4671784 3.88957813 4.9776928 4.77614743 -1 5 C-0.67 3.35 -0.34 1.7 0 0 Z " fill="#B0AA9D" transform="translate(192,236)"/>
<path d="M0 0 C0.33 0.66 0.66 1.32 1 2 C-3.91442612 4.54515542 -8.9039931 4.44153121 -14.3125 4.625 C-15.70952148 4.68300781 -15.70952148 4.68300781 -17.13476562 4.7421875 C-19.42298407 4.83606313 -21.71120295 4.92174509 -24 5 C-24.33 4.34 -24.66 3.68 -25 3 C-12.625 1.515 -12.625 1.515 0 0 Z " fill="#C3BEB4" transform="translate(342,261)"/>
<path d="M0 0 C1.49080078 0.02707031 1.49080078 0.02707031 3.01171875 0.0546875 C3.77097656 0.07789063 4.53023437 0.10109375 5.3125 0.125 C5.3125 0.785 5.3125 1.445 5.3125 2.125 C6.9625 2.455 8.6125 2.785 10.3125 3.125 C10.3125 3.455 10.3125 3.785 10.3125 4.125 C7.70805652 4.17894705 5.10473002 4.21864469 2.5 4.25 C1.76201172 4.26675781 1.02402344 4.28351563 0.26367188 4.30078125 C-3.59996426 4.33574628 -5.39653668 4.31897555 -8.6875 2.125 C-5.26655758 -0.15562828 -4.00562778 -0.09425007 0 0 Z " fill="#C6C1B8" transform="translate(175.6875,273.875)"/>
<path d="M0 0 C1.16144531 0.00902344 2.32289063 0.01804687 3.51953125 0.02734375 C4.39996094 0.03894531 5.28039062 0.05054688 6.1875 0.0625 C6.1875 0.7225 6.1875 1.3825 6.1875 2.0625 C1.07140523 4.21664517 -4.31583731 4.98190581 -9.8125 4.0625 C-10.4725 3.0725 -11.1325 2.0825 -11.8125 1.0625 C-7.81454108 0.10630267 -4.10446078 -0.0414592 0 0 Z " fill="#D6D2CC" transform="translate(331.8125,277.9375)"/>
<path d="M0 0 C0.33 0.66 0.66 1.32 1 2 C1.60328125 1.90460938 2.2065625 1.80921875 2.828125 1.7109375 C4.02695313 1.54464844 4.02695313 1.54464844 5.25 1.375 C6.43335938 1.20097656 6.43335938 1.20097656 7.640625 1.0234375 C10.39054407 0.99612042 11.65101977 1.61879963 14 3 C15.32 3.66 16.64 4.32 18 5 C11.4 5 4.8 5 -2 5 C-1.34 3.35 -0.68 1.7 0 0 Z " fill="#F0EFED" transform="translate(154,300)"/>
<path d="M0 0 C1.91731918 0.11455681 3.8338675 0.24206258 5.75 0.375 C7.35101563 0.47941406 7.35101563 0.47941406 8.984375 0.5859375 C11.80206432 0.9728223 13.5830366 1.55686166 16 3 C13.21398777 3.92867074 11.38933911 4.16342217 8.5 4.1875 C7.33984375 4.20876953 7.33984375 4.20876953 6.15625 4.23046875 C4 4 4 4 1 2 C0.67 1.34 0.34 0.68 0 0 Z " fill="#C9C4BC" transform="translate(211,286)"/>
<path d="M0 0 C0 0.33 0 0.66 0 1 C1.65 1.33 3.3 1.66 5 2 C5.33 1.34 5.66 0.68 6 0 C6.33 1.32 6.66 2.64 7 4 C4.22882696 3.85919445 1.45817359 3.71256882 -1.3125 3.5625 C-2.49102539 3.50352539 -2.49102539 3.50352539 -3.69335938 3.44335938 C-4.8293457 3.38051758 -4.8293457 3.38051758 -5.98828125 3.31640625 C-7.03302612 3.26141968 -7.03302612 3.26141968 -8.09887695 3.20532227 C-10 3 -10 3 -13 2 C-8.49646738 0.24252386 -4.82360189 -0.19294408 0 0 Z " fill="#D6D3CC" transform="translate(341,298)"/>
<path d="M0 0 C-0.33 0.33 -0.66 0.66 -1 1 C6.92 0.505 6.92 0.505 15 0 C15 0.33 15 0.66 15 1 C6.09 2.485 6.09 2.485 -3 4 C-3 3.01 -3 2.02 -3 1 C-3.99 0.67 -4.98 0.34 -6 0 C-3 -1 -3 -1 0 0 Z " fill="#CBC7BE" transform="translate(272,292)"/>
<path d="M0 0 C1.97119141 -0.34057617 1.97119141 -0.34057617 4.3515625 -0.29296875 C5.62773437 -0.2784668 5.62773437 -0.2784668 6.9296875 -0.26367188 C7.81914062 -0.23853516 8.70859375 -0.21339844 9.625 -0.1875 C10.97078125 -0.16719727 10.97078125 -0.16719727 12.34375 -0.14648438 C14.56309789 -0.11106925 16.78125188 -0.06168461 19 0 C19 0.33 19 0.66 19 1 C8.605 1.99 8.605 1.99 -2 3 C-1.34 2.01 -0.68 1.02 0 0 Z " fill="#FAFAF9" transform="translate(158,275)"/>
<path d="M0 0 C0.99 0.33 1.98 0.66 3 1 C2.45730469 1.47050781 1.91460937 1.94101563 1.35546875 2.42578125 C0.28232422 3.35970703 0.28232422 3.35970703 -0.8125 4.3125 C-1.52019531 4.92738281 -2.22789062 5.54226563 -2.95703125 6.17578125 C-4.98244046 7.93276741 -4.98244046 7.93276741 -6.63671875 9.73046875 C-8 11 -8 11 -10 11 C-8.56285993 7.64170896 -6.79022601 5.60029302 -4.0625 3.1875 C-3.02802734 2.24970703 -3.02802734 2.24970703 -1.97265625 1.29296875 C-1.32167969 0.86628906 -0.67070312 0.43960938 0 0 Z " fill="#D5D2CB" transform="translate(172,251)"/>
<path d="M0 0 C2.625 0.9375 2.625 0.9375 5 2 C-1.39130435 6.26086957 -1.39130435 6.26086957 -5.3125 5.625 C-5.869375 5.41875 -6.42625 5.2125 -7 5 C-2.25 1.125 -2.25 1.125 0 0 Z " fill="#E3E0DC" transform="translate(261,291)"/>
<path d="M0 0 C5.75 1.75 5.75 1.75 8 4 C7.34 4.66 6.68 5.32 6 6 C3.36 4.68 0.72 3.36 -2 2 C-1.34 1.34 -0.68 0.68 0 0 Z " fill="#AEA79A" transform="translate(237,287)"/>
<path d="M0 0 C0.33 0.66 0.66 1.32 1 2 C-2.89718171 3.86665742 -5.54084185 4.13965761 -9.8125 3.625 C-10.78832031 3.51414062 -11.76414062 3.40328125 -12.76953125 3.2890625 C-13.50558594 3.19367188 -14.24164063 3.09828125 -15 3 C-15 2.67 -15 2.34 -15 2 C-10.05 1.34 -5.1 0.68 0 0 Z " fill="#A39B8D" transform="translate(342,261)"/>
<path d="M0 0 C0.33 0.66 0.66 1.32 1 2 C4.3 2 7.6 2 11 2 C11 2.33 11 2.66 11 3 C10.32453125 3.04898437 9.6490625 3.09796875 8.953125 3.1484375 C8.06109375 3.22320312 7.1690625 3.29796875 6.25 3.375 C5.36828125 3.44460938 4.4865625 3.51421875 3.578125 3.5859375 C1.00933618 3.99850055 -0.75841015 4.71160957 -3 6 C-1.125 1.125 -1.125 1.125 0 0 Z " fill="#ABA496" transform="translate(158,271)"/>
<path d="M0 0 C3.63 0 7.26 0 11 0 C11 0.66 11 1.32 11 2 C11.66 2.33 12.32 2.66 13 3 C10.69 3 8.38 3 6 3 C6 2.67 6 2.34 6 2 C3.03 1.505 3.03 1.505 0 1 C0 0.67 0 0.34 0 0 Z " fill="#B4ADA1" transform="translate(170,274)"/>
<path d="M0 0 C2.97 0.99 5.94 1.98 9 3 C9 3.66 9 4.32 9 5 C8.01 5.33 7.02 5.66 6 6 C6 5.34 6 4.68 6 4 C4.35 3.67 2.7 3.34 1 3 C0.67 2.01 0.34 1.02 0 0 Z " fill="#BEB9AF" transform="translate(228,283)"/>
<path d="M0 0 C2.52588702 2.36292656 3.88820837 3.66462511 5 7 C3.68 7 2.36 7 1 7 C0.34 6.01 -0.32 5.02 -1 4 C-0.34 4 0.32 4 1 4 C0.67 2.68 0.34 1.36 0 0 Z " fill="#B7B1A6" transform="translate(243,279)"/>
<path d="M0 0 C0 0.66 0 1.32 0 2 C2.64 2.33 5.28 2.66 8 3 C4.59598052 4.13732426 2.22543336 3.83989957 -1.25 3.0625 C-2.14203125 2.86785156 -3.0340625 2.67320312 -3.953125 2.47265625 C-4.62859375 2.31667969 -5.3040625 2.16070312 -6 2 C-3 0 -3 0 0 0 Z " fill="#CBC6BE" transform="translate(231,289)"/>
<path d="M0 0 C-3 2 -3 2 -6 2 C-6 1.34 -6 0.68 -6 0 C-7.65 0 -9.3 0 -11 0 C-11 -0.33 -11 -0.66 -11 -1 C-6.70700357 -2.26264601 -4.12168689 -1.62950412 0 0 Z " fill="#ECEAE7" transform="translate(215,287)"/>
</svg>
